<svg id="Layer_1" data-name="Layer 1" xmlns="http://www.w3.org/2000/svg" viewBox="0 0 1600 266.3"><defs><style>.cls-1{fill:#fff;}</style></defs><path class="cls-1" d="M8,0A8,8,0,0,0,0,8V125.16a8,8,0,0,0,8,8H285a8,8,0,0,0,8-8V114.51a8,8,0,0,0-8-8H34.62a8,8,0,0,1-8-8V34.62a8,8,0,0,1,8-8H284.81a8,8,0,0,0,8-8V8a8,8,0,0,0-8-8Z" transform="translate(0 0)"/><path class="cls-1" d="M61.25,53.26a8,8,0,0,0-8,8V71.9a8,8,0,0,0,8,8h250.4a8,8,0,0,1,8,8v63.91a8,8,0,0,1-8,8H61.23a8,8,0,0,0-8,8v90.54a8,8,0,0,0,8,8H71.88a8,8,0,0,0,8-8V194.4a8,8,0,0,1,8-8H338.29a8,8,0,0,0,8-8V61.25a8,8,0,0,0-8-8Z" transform="translate(0 0)"/><path class="cls-1" d="M500.25,95.38v15.67H465.59c-17.27,0-24.84,8.64-24.84,29.22s7.44,29.09,24.84,29.09h34.66V185H465.59c-26.17,0-40.51-14.74-40.51-44.76s14.47-44.89,40.51-44.89Z" transform="translate(0 0)"/><path class="cls-1" d="M591.51,114.91l-42.24,98.27H534.13l13.15-30.67c-8,0-10.76-2.53-13.15-8.64l-23.5-59H525.5l21.12,52.19c.93,2.52,1.59,2.92,4.25,2.92h1.86l23.77-55.11Z" transform="translate(0 0)"/><path class="cls-1" d="M618.22,84.49v30.42H649.3c18.59,0,30.28,11.42,30.28,35.06S667.89,185,649.3,185H629.91c-16.87,0-25.77-9.83-25.77-30V84.49Zm0,44v25.9c0,12,4.38,17,15.8,17h13.82c12.22,0,17.53-6.24,17.53-21.38s-5.31-21.52-17.53-21.52Z" transform="translate(0 0)"/><path class="cls-1" d="M742.15,114.9c16.6,0,23.64,8,23.64,21.52,0,12.88-6.51,20.19-23.77,20.19H708.68v5c0,5.58,3.05,9.7,10.76,9.7h42.9V185h-42.9C701.91,185,695,175.2,695,161.92V138c0-13.28,6.91-23.11,24.44-23.11Zm-33.47,30.68h32.94c7.57,0,10.36-3.18,10.36-8.36s-3.06-8.77-10-8.77H719.44c-7.71,0-10.76,4.25-10.76,9.7Z" transform="translate(0 0)"/><path class="cls-1" d="M830.75,114.91v13.54h-24.7c-6.24,0-9,2.92-9,9V185H782.94V135.36c0-14.08,5.18-20.45,19-20.45Z" transform="translate(0 0)"/><path class="cls-1" d="M914.56,95.38v15.67H868.61c-8.1,0-11.68,4.39-11.68,10.63,0,5.44,2.79,10.62,13.28,10.62h21c24.44,0,30.15,13.55,30.15,26.43,0,15.14-8.1,26.3-28.56,26.3H842.85V169.36h50.46c8.5,0,12.36-4.65,12.36-11.16,0-5.84-3.06-11.16-14.08-11.16H870.74c-23.91,0-29.49-13.41-29.49-25.89,0-14.88,8-25.77,27.89-25.77Z" transform="translate(0 0)"/><path class="cls-1" d="M983.64,114.9c16.61,0,23.64,8,23.64,21.52,0,12.88-6.5,20.19-23.77,20.19H950.18v5c0,5.58,3.05,9.7,10.76,9.7h42.89V185H960.94c-17.54,0-24.44-9.83-24.44-23.11V138c0-13.28,6.9-23.11,24.44-23.11Zm-33.46,30.68h32.93c7.57,0,10.36-3.18,10.36-8.36s-3.05-8.77-10-8.77H960.94c-7.71,0-10.76,4.25-10.76,9.7Z" transform="translate(0 0)"/><path class="cls-1" d="M1087.79,114.91v13.54H1053c-12.22,0-17.53,6.38-17.53,21.52s5.31,21.38,17.53,21.38h34.8V185h-36.13c-18.73,0-30.41-11.42-30.41-35.06s11.68-35.06,30.41-35.06Z" transform="translate(0 0)"/><path class="cls-1" d="M1186.49,95.38c20.18,0,28.82,12.49,28.82,26.83,0,13.55-7.84,28.15-28.82,28.15H1158.6a2,2,0,0,0-2.26,2.26V185h-15.67V149.57c0-10.1,4.25-14.21,14.07-14.21H1187c8.9,0,12.48-6.11,12.48-12.35,0-6.51-3.85-12-12.35-12h-46.62V95.38Z" transform="translate(0 0)"/><path class="cls-1" d="M1274.29,114.9c16.6,0,23.64,8,23.64,21.52,0,12.88-6.51,20.19-23.77,20.19h-33.34v5c0,5.58,3.06,9.7,10.76,9.7h42.9V185h-42.9c-17.53,0-24.44-9.83-24.44-23.11V138c0-13.28,6.91-23.11,24.44-23.11Zm-33.47,30.68h32.94c7.57,0,10.36-3.18,10.36-8.36s-3.06-8.77-10-8.77h-22.58c-7.7,0-10.76,4.25-10.76,9.7Z" transform="translate(0 0)"/><path class="cls-1" d="M1357.05,114.91c18.59,0,30.41,11.42,30.41,35.06S1375.64,185,1357.05,185h-14.74c-18.73,0-30.42-11.42-30.42-35.06s11.69-35.06,30.42-35.06Zm-13.41,13.54c-12.22,0-17.54,6.38-17.54,21.52s5.32,21.38,17.54,21.38h12.08c12.09,0,17.53-6.24,17.53-21.38s-5.44-21.52-17.53-21.52Z" transform="translate(0 0)"/><path class="cls-1" d="M1449.24,114.91c18.59,0,30.28,11.42,30.28,35.06S1467.83,185,1449.24,185h-31.08v28.15h-14.08V144.92c0-20.19,8.9-30,25.77-30Zm-31.08,56.44h29.61c12.22,0,17.53-6.24,17.53-21.38s-5.31-21.52-17.53-21.52H1434c-11.42,0-15.8,5.05-15.8,17.13Z" transform="translate(0 0)"/><rect class="cls-1" x="1496.4" y="84.49" width="14.07" height="100.54"/><path class="cls-1" d="M1576.36,114.9c16.6,0,23.64,8,23.64,21.52,0,12.88-6.51,20.19-23.77,20.19h-33.34v5c0,5.58,3.06,9.7,10.76,9.7h42.9V185h-42.9c-17.53,0-24.44-9.83-24.44-23.11V138c0-13.28,6.91-23.11,24.44-23.11Zm-33.47,30.68h32.94c7.57,0,10.36-3.18,10.36-8.36s-3.06-8.77-10-8.77h-22.58c-7.7,0-10.76,4.25-10.76,9.7Z" transform="translate(0 0)"/></svg>