<svg width="300" height="47" xmlns="http://www.w3.org/2000/svg" clip-rule="evenodd" xml:space="preserve">

 <g>
  <title>Layer 1</title>
  <path id="svg_1" fill-rule="nonzero" fill="#6fbde9" d="m39.72,6.957l-0.246,-0.246c-1.579,-1.382 -4.589,-4.096 -9.918,-5.724c3.799,1.184 6.612,2.516 10.164,5.97z"/>
  <path id="svg_2" fill-rule="nonzero" fill="#6fbde9" d="m29.605,1.727c0.05,0 0.05,0.049 0.099,0.049c0.099,-0.246 0.099,-0.296 -0.049,-0.542c-0.099,-0.148 -0.395,-0.297 -0.593,-0.395c-0.049,0 -0.098,-0.05 -0.148,-0.05c0.346,0.148 0.494,0.247 0.642,0.445c0.148,0.246 0.099,0.345 0.049,0.493z"/>
  <path id="svg_3" fill-rule="nonzero" fill="#6fbde9" d="m39.03,11.645c0,0.049 0.049,0.049 0.049,0.098c1.135,-1.381 1.628,-2.368 1.036,-3.947c-0.049,-0.049 -0.049,-0.049 -0.099,-0.099c0.494,1.283 0.445,2.171 -0.986,3.948z"/>
  <path id="svg_4" fill-rule="nonzero" fill="#6fbde9" d="m44.211,15.789c0,0 0.049,0 0,0c-0.297,-1.875 -0.839,-4.539 -3.701,-7.697l-0.049,0c1.282,1.53 3.009,3.651 3.75,7.697z"/>
  <path id="svg_5" fill-rule="nonzero" fill="#6fbde9" d="m25.806,46.086c0.148,-0.05 1.48,-0.297 2.812,-1.53l-0.098,0c-0.247,0.148 -0.494,0.395 -0.691,0.592c-0.493,0.444 -1.628,0.839 -2.023,0.938z"/>
  <path id="svg_6" fill-rule="nonzero" fill="#6fbde9" d="m22.747,11.102l0.148,0c-0.346,-1.628 -1.333,-6.513 -2.418,-8.882l-0.049,0c0.246,0.691 1.085,2.714 2.319,8.882z"/>
  <path id="svg_7" fill-rule="nonzero" fill="#6fbde9" d="m29.062,1.678c-0.197,-0.148 -3.848,-1.333 -5.575,-1.629c1.036,0.247 2.368,0.543 5.575,1.629z"/>
  <path id="svg_8" fill-rule="nonzero" fill="#6fbde9" d="m23.289,46.431c1.037,-0.099 2.172,-0.197 5.083,-1.826c-1.53,0.79 -3.208,1.678 -5.083,1.826z"/>
  <path id="svg_9" fill-rule="nonzero" fill="#6fbde9" d="m38.339,11.25c0,0 0.049,-0.049 0,0c-1.925,-3.503 -4.096,-6.365 -8.142,-9.03c2.714,1.925 5.181,3.898 8.142,9.03z"/>
  <path id="svg_10" fill-rule="nonzero" fill="#6fbde9" d="m23.141,10.905c0,0 0.05,0.049 0.099,0.098c2.665,-3.651 4.836,-7.401 3.059,-10.46c-0.049,0 -0.049,-0.05 -0.098,-0.05c1.135,2.171 1.036,4.787 -3.06,10.412z"/>
  <path id="svg_11" fill-rule="nonzero" fill="#6fbde9" d="m24.227,45.493c0,0 0,0.05 0,0c1.382,-0.345 4.145,-1.085 4.145,-1.085l0.049,-0.049c-1.332,0.394 -2.763,0.74 -4.194,1.134z"/>
  <path id="svg_12" fill-rule="nonzero" fill="#6fbde9" d="m22.056,11.003c0,-0.049 0.049,-0.049 0.049,-0.098c-4.441,-5.477 -5.378,-6.612 -6.464,-9.03l-0.049,0.049c1.234,2.813 2.813,4.836 6.464,9.079z"/>
  <path id="svg_13" fill-rule="nonzero" fill="#6fbde9" d="m27.484,15.296l0.049,-0.049c-1.036,-0.839 -1.579,-1.283 -4.244,-3.06l-0.049,0.05c2.27,1.628 3.701,2.615 4.244,3.059z"/>
  <path id="svg_14" fill-rule="nonzero" fill="#6fbde9" d="m16.875,45.444l0.099,0c0.246,-1.431 1.48,-3.108 6.858,-7.451c-0.049,-0.049 -0.049,-0.049 -0.098,-0.098c-4.145,3.404 -6.76,5.822 -6.859,7.549z"/>
  <path id="svg_15" fill-rule="nonzero" fill="#6fbde9" d="m25.855,44.901c0.198,-1.085 0.444,-2.664 0.444,-6.908l-0.098,0c0,1.974 0,4.935 -0.346,6.908z"/>
  <path id="svg_16" fill-rule="nonzero" fill="#6fbde9" d="m22.796,46.382c-1.579,-0.198 -3.108,-0.839 -4.441,-1.431c0,0.049 1.875,1.085 4.441,1.431z"/>
  <path id="svg_17" fill-rule="nonzero" fill="#6fbde9" d="m25.164,45.592c0,0 0,-0.049 0,0c-2.713,-0.345 -5.427,-0.543 -8.141,-0.839c0.049,0.05 0.444,0.099 1.086,0.148c2.319,0.247 4.687,0.444 7.055,0.691z"/>
  <path id="svg_18" fill-rule="nonzero" fill="#6fbde9" d="m25.263,37.895l0,-0.05c-2.664,-2.664 -5.477,-4.934 -8.141,-7.746l0,0.098c0.937,1.037 1.135,1.283 2.417,2.467c1.875,1.777 3.8,3.405 5.724,5.231z"/>
  <path id="svg_19" fill-rule="nonzero" fill="#6fbde9" d="m19.836,3.306l0,0.049c2.812,-1.825 3.552,-2.418 4.194,-3.108c0,0 -0.05,0 -0.05,-0.05c-0.592,0.642 -0.937,0.987 -4.144,3.109z"/>
  <path id="svg_20" fill-rule="nonzero" fill="#6fbde9" d="m19.836,2.664c0,-0.049 0,-0.049 -0.05,-0.098c-1.036,-0.05 -2.122,-0.099 -2.664,-1.234c0,0.148 0.049,0.592 1.085,1.086c0.296,0.148 0.839,0.246 1.629,0.246z"/>
  <path id="svg_21" fill-rule="nonzero" fill="#6fbde9" d="m17.22,44.359c-1.825,-1.481 -5.181,-4.244 -7.598,-11.744l-0.05,0c1.086,3.454 3.01,8.339 7.648,11.744z"/>
  <path id="svg_22" fill-rule="nonzero" fill="#6fbde9" d="m0.247,23.783l0,0.099c1.529,-1.333 2.516,-2.073 5.131,-3.553l0,-0.148c-2.516,1.48 -3.7,2.27 -5.131,3.602z"/>
  <path id="svg_23" fill-rule="nonzero" fill="#6fbde9" d="m3.799,35.082c0,0 0.05,0.05 0,0c0.444,-5.131 0.74,-7.697 1.826,-14.161c0,0 -0.049,-0.049 -0.049,-0.099c-1.135,6.612 -1.481,9.622 -1.777,14.26z"/>
  <path id="svg_24" fill-rule="nonzero" fill="#6fbde9" d="m5.526,19.391l0.099,0c0.049,-4.194 0.099,-6.019 0.74,-9.671l-0.099,0c-0.542,3.109 -0.74,5.132 -0.74,9.671z"/>
  <path id="svg_25" fill-rule="nonzero" fill="#6fbde9" d="m5.428,19.589c0,-0.05 0.049,-0.099 0.049,-0.148c-1.48,-2.073 -2.714,-3.8 -3.651,-6.365c0,0.049 -0.05,0.049 -0.05,0.098c0.691,1.826 1.333,3.356 3.652,6.415z"/>
  <path id="svg_26" fill-rule="nonzero" fill="#6fbde9" d="m16.875,44.901c-2.566,-1.48 -4.145,-2.417 -7.056,-4.885l0,0.05c1.53,1.332 3.454,2.911 7.056,4.835z"/>
  <path id="svg_27" fill-rule="nonzero" fill="#6fbde9" d="m7.549,32.122c0,-0.05 0,-0.05 0.05,-0.099c-2.171,-2.122 -3.701,-3.701 -5.329,-6.266c0,0.049 0,0.049 -0.05,0.098c1.037,1.629 2.122,3.257 5.329,6.267z"/>
  <path id="svg_28" fill-rule="nonzero" fill="#6fbde9" d="m19.046,45.937c-3.207,-0.888 -3.947,-1.085 -6.661,-2.467c0.049,0.05 2.171,1.382 6.661,2.467z"/>
  <path id="svg_29" fill-rule="nonzero" fill="#6fbde9" d="m1.086,16.875c0.789,-0.888 2.023,-1.776 9.029,-3.306c0.049,-0.049 0.049,-0.049 0.049,-0.148c-5.082,1.135 -8.042,1.974 -8.98,3.306c-0.049,0.049 -0.098,0.099 -0.098,0.148z"/>
  <path id="svg_30" fill-rule="nonzero" fill="#6fbde9" d="m5.181,20.773l0.099,0c0.74,-1.924 1.431,-3.75 5.181,-6.661l-0.149,0c-1.973,1.628 -4.243,3.503 -5.131,6.661z"/>
  <path id="svg_31" fill-rule="nonzero" fill="#6fbde9" d="m8.832,13.816c0.05,-0.05 0.099,-0.05 0.148,-0.099c-1.628,-1.332 -2.763,-2.516 -0.987,-4.293c-0.641,0.346 -2.516,1.826 0.839,4.392z"/>
  <path id="svg_32" fill-rule="nonzero" fill="#6fbde9" d="m11.546,12.089l0.197,0c1.629,-2.073 4.343,-5.527 14.754,-6.563c-0.099,0 -10.461,0.247 -14.951,6.563z"/>
  <path id="svg_33" fill-rule="nonzero" fill="#6fbde9" d="m9.178,40.115c-2.023,-2.812 -4.737,-6.71 -5.773,-13.125l-0.05,0c0.444,2.517 1.382,7.648 5.823,13.125z"/>
  <path id="svg_34" fill-rule="nonzero" fill="#6fbde9" d="m11.25,42.434l0.148,0.148c-2.615,-3.799 -3.306,-5.575 -3.799,-10.115c-0.099,-0.099 -0.099,-0.148 -0.198,-0.247c0.494,4.392 1.086,6.267 3.849,10.214z"/>
  <path id="svg_35" fill-rule="nonzero" fill="#6fbde9" d="m0.74,29.013c-0.148,-0.888 -0.296,-1.924 1.875,-3.799c0,-0.05 0,-0.05 -0.049,-0.148c-0.987,0.937 -2.27,2.072 -1.875,3.799c0,0.049 0.049,0.099 0.049,0.148z"/>
  <path id="svg_36" fill-rule="nonzero" fill="#6fbde9" d="m3.01,34.638c0.937,1.727 3.059,5.132 8.043,8.092c-0.444,-0.246 -0.987,-0.691 -1.431,-0.937c-0.691,-0.444 -4.293,-3.01 -6.76,-7.451l0.148,0.296z"/>
  <path id="svg_37" fill-rule="nonzero" fill="#6fbde9" d="m27.928,0.543c0.641,0.148 0.986,0.246 0.986,0.246c-0.049,-0.049 -1.628,-0.444 -1.875,-0.444l0.247,0.05c0.148,0 0.395,0.098 0.642,0.148z"/>
  <path id="svg_38" fill-rule="nonzero" fill="#6fbde9" d="m0.641,18.158l-0.049,0.049c0.592,-2.96 0.987,-4.342 3.059,-7.5c0.05,-0.098 0.148,-0.197 0.198,-0.246c-2.023,3.009 -2.566,4.342 -3.208,7.697z"/>
  <path id="svg_39" fill-rule="nonzero" fill="#6fbde9" d="m1.48,31.431c0,-0.049 -0.049,-0.099 -0.049,-0.148c-0.099,-0.296 -0.197,-0.691 -0.296,-0.987c0.148,0.345 0.247,0.74 0.345,1.135z"/>
  <path id="svg_40" fill-rule="nonzero" fill="#6fbde9" d="m0.937,29.457c0,0.05 0,0.099 0.05,0.099c-0.05,-0.197 -0.148,-0.395 -0.198,-0.592c0,-0.05 -0.049,-0.099 -0.049,-0.148l0.197,0.641z"/>
  <path id="svg_41" fill-rule="nonzero" fill="#6fbde9" d="m15.493,45.099c-0.049,0 -0.098,-0.05 -0.148,-0.05c-0.197,-0.049 -0.444,-0.148 -0.592,-0.246c0.247,0.098 0.494,0.197 0.74,0.296z"/>
  <path id="svg_42" fill-rule="nonzero" fill="#6fbde9" d="m4.194,10.016l-0.049,-0.098c1.332,-1.579 4.342,-5.082 10.954,-8.29c-0.444,0.346 -1.135,0.592 -1.579,0.839c-1.283,0.691 -2.961,1.776 -4.046,2.615c-2.615,1.974 -4.145,3.454 -5.28,4.934z"/>
  <path id="svg_43" fill-rule="nonzero" fill="#6fbde9" d="m15.987,1.678c0.148,-0.05 0.247,-0.099 4.983,-0.247l-0.049,0.049c-1.678,0.05 -3.306,0.099 -4.934,0.198z"/>
  <path id="svg_44" fill-rule="nonzero" fill="#6fbde9" d="m22.352,46.382c-2.023,-0.148 -4.095,-0.247 -6.908,-1.333l-0.049,0c2.023,0.642 5.23,1.481 6.957,1.333z"/>
  <path id="svg_45" fill-rule="nonzero" fill="#6fbde9" d="m14.605,44.704c-0.148,-0.049 -0.197,-0.099 -0.246,-0.197c-0.05,-0.05 -0.05,-0.198 -0.05,-0.247c0,-0.148 0.247,-0.296 0.444,-0.395c0.05,0 0.05,0.049 0.099,0.049c-0.247,0.148 -0.345,0.247 -0.395,0.395c-0.098,0.198 0,0.296 0.148,0.395z"/>
  <path id="svg_46" fill-rule="nonzero" fill="#6fbde9" d="m0.888,29.013c-0.691,-2.763 -1.579,-6.217 0.049,-12.089c-0.789,3.405 -1.529,6.612 -0.049,12.089z"/>
  <path id="svg_47" fill-rule="nonzero" fill="#6fbde9" d="m1.48,17.418c0,0 1.036,-3.75 6.069,-8.783l0,0.049c-2.417,2.517 -4.391,4.786 -6.069,8.734z"/>
  <path id="svg_48" fill-rule="nonzero" fill="#6fbde9" d="m5.033,19.243l0,0.099c-0.691,-0.099 -2.961,-0.493 -4.096,-1.036l0,-0.148c0.741,0.345 1.629,0.592 4.096,1.085z"/>
  <path id="svg_49" fill-rule="nonzero" fill="#6fbde9" d="m14.26,43.569c-1.382,-0.641 -4.293,-2.023 -7.105,-4.243c0,-0.05 -0.05,-0.05 -0.05,-0.099c1.333,1.036 3.356,2.566 7.155,4.342z"/>
  <path id="svg_50" fill-rule="nonzero" fill="#6fbde9" d="m14.211,38.98c0,0 0.049,0.05 0.049,0.099c-2.911,0 -7.352,-0.148 -7.401,-0.197c-0.05,-0.05 -0.05,-0.05 -0.099,-0.099c0.789,0.049 2.072,0.099 7.451,0.197z"/>
  <path id="svg_51" fill-rule="nonzero" fill="#6fbde9" d="m11.546,41.645c-0.049,-0.05 -2.862,-2.961 5.674,-8.734c0,0.05 0.05,0.099 0.099,0.099c-3.158,2.368 -7.056,5.279 -5.773,8.635z"/>
  <path id="svg_52" fill-rule="nonzero" fill="#6fbde9" d="m17.664,32.862c0,0.049 0,0.049 0.05,0.099c-5.428,-0.05 -13.816,-0.297 -15.592,-0.494c0,-0.049 -0.05,-0.099 -0.05,-0.148c1.431,0.099 3.8,0.247 15.592,0.543c0,-0.049 0,0 0,0z"/>
  <path id="svg_53" fill-rule="nonzero" fill="#6fbde9" d="m5.329,18.553l-0.049,0.049c-0.494,-2.319 -1.135,-5.872 -0.346,-9.868l0.05,-0.05c-0.494,2.813 -0.593,5.379 0.345,9.869z"/>
  <path id="svg_54" fill-rule="nonzero" fill="#6fbde9" d="m6.908,9.72c1.628,-2.269 3.75,-5.082 8.191,-7.746l0.049,0c-2.319,1.48 -4.984,3.207 -8.24,7.746z"/>
  <path id="svg_55" fill-rule="nonzero" fill="#6fbde9" d="m30.296,14.556c-0.049,0.049 -0.049,0.099 -0.099,0.148c-1.776,-1.431 -5.082,-4.095 -1.875,-8.586c0.05,-0.049 0.099,-0.098 0.148,-0.148c-1.134,1.777 -3.059,4.787 1.826,8.586z"/>
  <path id="svg_56" fill-rule="nonzero" fill="#6fbde9" d="m7.155,9.72c0.049,-0.049 0.098,-0.049 0.148,-0.098c2.121,0 4.095,0 14.556,0.246c-0.05,0.05 -0.05,0.05 -0.099,0.099c-7.944,-0.148 -10.559,-0.197 -14.605,-0.247z"/>
  <path id="svg_57" fill-rule="nonzero" fill="#6fbde9" d="m14.605,44.26c0,0 -1.529,-1.283 -0.197,-5.132c0.049,0.05 0.049,0.05 0.099,0.099c-0.593,1.875 -0.889,3.158 0.098,5.033z"/>
  <path id="svg_58" fill-rule="nonzero" fill="#6fbde9" d="m21.957,46.086c0,0 0.05,0 0,0c-3.306,-0.889 -5.082,-1.53 -6.513,-2.023c0,0 -0.049,-0.05 -0.099,-0.05c1.431,0.494 3.208,1.135 6.612,2.073z"/>
  <path id="svg_59" fill-rule="nonzero" fill="#6fbde9" d="m8.98,32.319c0,0 -0.049,0.049 0,0c-0.691,-1.875 -2.121,-5.822 -3.454,-11.842c0,0 0.05,-0.049 0.05,-0.099c0.641,2.813 1.529,6.661 3.404,11.941z"/>
  <path id="svg_60" fill-rule="nonzero" fill="#6fbde9" d="m10.609,12.977c-0.05,0 -0.099,-0.049 -0.099,-0.049c2.171,-2.665 5.477,-6.711 10.214,-10.165c0,0 0.049,0 0.049,0.049c-2.467,1.974 -5.329,4.244 -10.164,10.165z"/>
  <path id="svg_61" fill-rule="nonzero" fill="#6fbde9" d="m27.188,5.625c0,-0.049 0.049,-0.049 0.049,-0.099c3.404,0.198 6.809,0.444 10.214,0.642l0,0.098c-3.405,-0.197 -6.81,-0.444 -10.264,-0.641l0.001,0z"/>
  <path id="svg_62" fill-rule="nonzero" fill="#6fbde9" d="m21.957,46.036c-0.74,-0.444 -3.01,-1.677 -6.71,-6.365c0,0 0.049,0 0.049,-0.049c1.135,1.381 4.046,4.983 6.661,6.414z"/>
  <path id="svg_63" fill-rule="nonzero" fill="#6fbde9" d="m25.855,4.885l-0.049,0.049c-3.553,-1.628 -4.737,-2.319 -5.576,-3.306c0.05,0 0.05,-0.049 0.099,-0.049c0.888,1.036 2.023,1.678 5.526,3.306c0.05,0 0,0 0,0z"/>
  <path id="svg_64" fill-rule="nonzero" fill="#6fbde9" d="m23.684,0.148c-0.098,0.197 -0.444,0.345 -3.108,1.184l0,-0.049c0.197,-0.099 0.493,-0.148 0.69,-0.247c1.826,-0.543 2.32,-0.691 2.418,-0.888"/>
  <path id="svg_65" fill-rule="nonzero" fill="#6fbde9" d="m25.461,4.391c-0.05,0 -0.05,0 -0.099,-0.049c0.247,-1.381 0.74,-3.898 -1.628,-4.243c1.184,0.098 2.368,0.937 1.727,4.292z"/>
  <path id="svg_66" fill-rule="nonzero" fill="#6fbde9" d="m23.536,46.382c1.036,-0.099 1.925,-0.445 3.01,-0.889c-1.234,0.543 -1.875,0.79 -3.01,0.889z"/>
  <path id="svg_67" fill-rule="nonzero" fill="#6fbde9" d="m34.589,9.918c-0.05,0.049 -0.05,0.049 -0.099,0.098c-2.467,-1.727 -4.983,-3.454 -7.5,-5.18c0.049,-0.05 0.049,-0.05 0.099,-0.05c2.516,1.678 5.033,3.405 7.5,5.132z"/>
  <path id="svg_68" fill-rule="nonzero" fill="#6fbde9" d="m26.151,5.378c0,-0.049 0,-0.098 -0.049,-0.148c3.454,-1.085 5.526,-1.825 6.316,-2.22c0,0.049 0.049,0.049 0.049,0.099c-0.493,0.345 -1.776,1.036 -6.316,2.269z"/>
  <path id="svg_69" fill-rule="nonzero" fill="#6fbde9" d="m39.178,8.783l-0.05,0c-2.417,-3.257 -4.687,-5.526 -9.227,-7.303c3.602,1.431 6.267,3.109 9.277,7.303z"/>
  <path id="svg_70" fill-rule="nonzero" fill="#6fbde9" d="m29.951,1.48c0.049,0.05 0.098,0.099 0.148,0.099c-0.74,-0.197 -1.629,-0.444 -3.898,-0.888c-0.05,-0.05 -0.05,-0.099 -0.099,-0.099c0.937,0.148 2.516,0.494 3.849,0.888c-0.05,0 0,0 0,0z"/>
  <path id="svg_71" fill-rule="nonzero" fill="#6fbde9" d="m33.997,9.128c-0.05,0 -0.05,0 -0.148,-0.049c0.098,-1.727 0.197,-4.095 -1.382,-6.02c0.049,0.05 1.875,1.332 1.53,6.069z"/>
  <path id="svg_72" fill-rule="nonzero" fill="#6fbde9" d="m23.043,11.497c0,-0.05 -0.05,-0.099 -0.05,-0.148c4.935,-0.987 7.846,-1.629 8.734,-1.875c0.049,0.049 0.049,0.098 0.099,0.148c-1.53,0.493 -3.504,0.987 -8.783,1.875z"/>
  <path id="svg_73" fill-rule="nonzero" fill="#6fbde9" d="m22.845,46.431c1.037,-1.332 2.467,-3.207 2.764,-8.29c0.049,0 0.049,0 0.148,-0.049c-0.198,2.319 -0.543,5.822 -2.912,8.339c0.05,0 0,0 0,0z"/>
  <path id="svg_74" fill-rule="nonzero" fill="#6fbde9" d="m26.941,45.937l-0.099,0.05c0.099,-0.05 0.296,-0.099 0.296,-0.247c0.05,-0.197 0.05,-0.197 -0.099,-0.395c0.05,0 0.05,-0.049 0.099,-0.049c0.05,0.099 0.198,0.197 0.148,0.296c0,0.197 -0.049,0.197 -0.345,0.346l0,-0.001z"/>
  <path id="svg_75" fill-rule="nonzero" fill="#6fbde9" d="m44.309,15.691l0,0.049c-1.036,-1.875 -2.319,-3.454 -4.145,-5.674l0,-0.05c1.678,1.826 2.714,3.01 4.145,5.675c0,-0.05 0,0 0,0z"/>
  <path id="svg_76" fill-rule="nonzero" fill="#6fbde9" d="m38.24,5.625l-0.395,-0.345l-0.049,-0.05l0.296,0.247c0.049,0.049 0.099,0.099 0.148,0.148z"/>
  <path id="svg_77" fill-rule="nonzero" fill="#6fbde9" d="m24.523,45.937c0,0 2.516,0.839 7.007,-1.134l-0.05,-0.05c-2.072,0.839 -3.799,1.53 -6.957,1.184z"/>
  <path id="svg_78" fill-rule="nonzero" fill="#6fbde9" d="m25.115,0.296c0,0 0,-0.049 0,0c-1.924,-0.345 -4.589,-0.74 -8.536,0.938l-0.049,0.049c1.924,-0.691 4.292,-1.727 8.585,-0.987z"/>
  <path id="svg_79" fill-rule="nonzero" fill="#6fbde9" d="m14.704,20.674c1.283,1.037 3.207,0.74 4.293,-0.641c1.036,-1.382 0.839,-3.306 -0.494,-4.293c-1.283,-0.937 -3.158,-0.641 -4.194,0.691c-1.036,1.381 -0.888,3.256 0.395,4.243z"/>
  <path id="svg_80" fill-rule="nonzero" fill="#5ebcc2" d="m9.572,6.464c0.642,0.296 2.073,-0.198 3.06,-1.135c0.986,-0.888 1.134,-1.727 0.394,-1.924c-0.641,-0.05 -1.875,0.493 -2.763,1.233c-0.937,0.79 -1.283,1.628 -0.691,1.826z"/>
  <path id="svg_81" fill-rule="nonzero" fill="#6fbde9" d="m7.352,11.151c0.888,-1.135 1.085,-2.417 0.444,-2.763c-0.543,-0.296 -1.579,0.296 -2.368,1.332c-0.741,1.037 -1.086,2.171 -0.642,2.616c0.494,0.493 1.678,-0.05 2.566,-1.185z"/>
  <path id="svg_82" fill-rule="nonzero" fill="#5ebcc2" d="m8.635,15.74c0.987,0.839 2.615,0.444 3.602,-0.839c0.987,-1.283 0.937,-2.96 -0.148,-3.7c-0.987,-0.691 -2.517,-0.247 -3.454,0.937c-0.888,1.234 -0.888,2.862 0,3.602z"/>
  <path id="svg_83" fill-rule="nonzero" fill="#6fbde9" d="m0.099,21.365l0,0.247c-0.05,0.641 -0.099,1.283 -0.099,1.924c0,0.247 0,0.543 0.049,0.74c0.148,0.74 0.395,0.642 0.592,-0.345c0.296,-1.036 0.247,-2.517 0,-3.207c-0.148,-0.691 -0.394,-0.346 -0.542,0.641z"/>
  <path id="svg_84" fill-rule="nonzero" fill="#6fbde9" d="m7.204,22.155c0.839,-1.283 0.691,-3.109 -0.247,-3.948c-0.839,-0.839 -2.121,-0.444 -2.812,0.79c-0.642,1.233 -0.592,2.862 0.148,3.75c0.839,0.937 2.171,0.691 2.911,-0.592z"/>
  <path id="svg_85" fill-rule="nonzero" fill="#5ebcc2" d="m3.109,17.714c0.641,-1.184 0.789,-2.665 0.296,-3.257c-0.346,-0.493 -1.086,0.05 -1.579,1.135c-0.494,1.086 -0.691,2.369 -0.444,3.01c0.296,0.691 1.134,0.296 1.727,-0.888z"/>
  <path id="svg_86" fill-rule="nonzero" fill="#244092" d="m24.178,8.931c-1.283,-0.839 -3.109,-0.592 -4.145,0.543c-1.036,1.184 -0.839,2.862 0.444,3.799c1.332,0.938 3.306,0.691 4.293,-0.543c1.036,-1.233 0.74,-2.911 -0.592,-3.799z"/>
  <path id="svg_87" fill-rule="nonzero" fill="#6fbde9" d="m25.362,4.095c-0.888,0.79 -0.642,2.073 0.641,2.862c1.283,0.839 3.059,0.74 3.898,-0.148c0.79,-0.839 0.346,-2.023 -0.839,-2.763c-1.233,-0.641 -2.861,-0.641 -3.7,0.049z"/>
  <path id="svg_88" fill-rule="nonzero" fill="#6fbde9" d="m14.852,2.171c0.74,0.099 2.171,-0.296 3.109,-0.839c0.888,-0.444 0.937,-0.74 0.148,-0.691c-0.198,0.05 -0.445,0.099 -0.691,0.148c-0.592,0.148 -1.234,0.346 -1.826,0.593c-0.049,0 -0.148,0.049 -0.197,0.098c-0.987,0.395 -1.234,0.74 -0.543,0.691z"/>
  <path id="svg_89" fill-rule="nonzero" fill="#244092" d="m30.345,2.961c1.185,0.641 2.566,0.838 3.06,0.444c0.444,-0.296 -0.148,-0.938 -1.185,-1.431c-1.036,-0.444 -2.319,-0.74 -2.812,-0.592c-0.592,0.296 -0.197,0.986 0.937,1.579z"/>
  <path id="svg_90" fill-rule="nonzero" fill="#5ebcc2" d="m19.638,3.553c1.135,0.493 2.813,0.296 3.701,-0.444c0.839,-0.642 0.641,-1.481 -0.444,-1.826c-1.036,-0.296 -2.566,-0.099 -3.454,0.395c-0.888,0.592 -0.839,1.431 0.197,1.875z"/>
  <path id="svg_91" fill-rule="nonzero" fill="#6fbde9" d="m24.424,0.592c1.037,0.296 2.517,0.345 3.109,0.148c0.493,-0.099 0.296,-0.247 -0.346,-0.395c-0.986,-0.148 -1.973,-0.246 -2.96,-0.296l-0.247,0c-0.74,0.099 -0.592,0.346 0.444,0.543z"/>
  <path id="svg_92" fill-rule="nonzero" fill="#5ebcc2" d="m31.332,14.013c-1.332,-0.987 -3.207,-0.839 -4.194,0.395c-1.036,1.283 -0.74,3.207 0.642,4.243c1.381,1.086 3.306,0.839 4.243,-0.493c0.938,-1.283 0.592,-3.109 -0.691,-4.145z"/>
  <path id="svg_93" fill-rule="nonzero" fill="#6fbde9" d="m27.533,37.993c1.036,-1.134 0.888,-2.812 -0.395,-3.7c-1.332,-0.938 -3.256,-0.691 -4.293,0.592c-0.986,1.184 -0.74,2.862 0.543,3.701c1.332,0.74 3.158,0.493 4.145,-0.593z"/>
  <path id="svg_94" fill-rule="nonzero" fill="#244092" d="m26.398,25.757c1.086,-1.382 0.79,-3.405 -0.592,-4.491c-1.382,-1.085 -3.405,-0.789 -4.49,0.593c-1.086,1.381 -0.79,3.404 0.592,4.49c1.381,1.036 3.404,0.789 4.49,-0.592z"/>
  <path id="svg_95" fill-rule="nonzero" fill="#6fbde9" d="m28.174,43.964c-1.085,-0.444 -2.763,-0.247 -3.651,0.493c-0.888,0.642 -0.641,1.382 0.395,1.727c0.987,0.247 2.467,0.05 3.355,-0.444c0.938,-0.592 0.938,-1.431 -0.099,-1.776z"/>
  <path id="svg_96" fill-rule="nonzero" fill="#6fbde9" d="m35.576,8.388c-1.185,-0.888 -2.714,-0.987 -3.454,-0.099c-0.79,0.938 -0.395,2.566 0.888,3.504c1.283,0.987 2.911,0.937 3.602,-0.05c0.592,-0.937 0.099,-2.417 -1.036,-3.355z"/>
  <path id="svg_97" fill-rule="nonzero" fill="#6fbde9" d="m37.747,5.428c-0.987,-0.74 -2.073,-1.135 -2.418,-0.79c-0.444,0.444 0.099,1.579 1.233,2.418c1.086,0.888 2.27,1.135 2.566,0.543c0.247,-0.444 -0.394,-1.382 -1.381,-2.171z"/>
  <path id="svg_98" fill-rule="nonzero" fill="#5ebcc2" d="m19.885,28.964c-1.382,-1.036 -3.306,-0.839 -4.293,0.493c-0.937,1.283 -0.592,3.109 0.74,4.145c1.332,0.987 3.207,0.839 4.194,-0.395c1.037,-1.283 0.74,-3.207 -0.641,-4.243z"/>
  <path id="svg_99" fill-rule="nonzero" fill="#5ebcc2" d="m1.579,30.395c-0.493,-0.938 -0.74,-1.036 -0.642,-0.296c0.05,0 0.05,0.098 0.099,0.197c0.296,0.938 0.642,1.875 1.036,2.813c0.296,0.592 0.494,0.74 0.444,0.246c0.05,-0.641 -0.394,-2.023 -0.937,-2.96z"/>
  <path id="svg_100" fill-rule="nonzero" fill="#6fbde9" d="m17.22,44.359c-1.184,-0.642 -2.615,-0.79 -3.108,-0.445c-0.444,0.297 0.148,0.889 1.184,1.382c1.036,0.444 2.27,0.691 2.862,0.543c0.592,-0.247 0.197,-0.938 -0.938,-1.48z"/>
  <path id="svg_101" fill-rule="nonzero" fill="#6fbde9" d="m9.03,34.046c0.641,-1.036 0.296,-2.763 -0.839,-3.799c-1.086,-1.036 -2.369,-0.938 -2.911,0.148c-0.444,0.987 -0.05,2.566 0.888,3.552c0.987,0.987 2.27,1.086 2.862,0.099z"/>
  <path id="svg_102" fill-rule="nonzero" fill="#244092" d="m3.207,24.967c-0.691,-0.888 -1.529,-0.691 -1.825,0.346c-0.247,0.986 -0.05,2.467 0.493,3.404c0.641,0.938 1.48,0.938 1.875,-0.049c0.493,-1.036 0.247,-2.714 -0.543,-3.701z"/>
  <path id="svg_103" fill-rule="nonzero" fill="#244092" d="m3.651,34.984c0,0.542 0.592,1.677 1.283,2.565c0.79,0.889 1.53,1.283 1.727,0.79c0.247,-0.592 -0.296,-1.875 -1.233,-2.862c-0.889,-0.938 -1.678,-1.135 -1.777,-0.493z"/>
  <path id="svg_104" fill-rule="nonzero" fill="#6fbde9" d="m10.954,40.411c-1.135,-0.888 -2.319,-1.085 -2.665,-0.592c-0.246,0.444 0.395,1.382 1.382,2.122c0.987,0.74 2.122,1.085 2.467,0.789c0.494,-0.394 -0.049,-1.48 -1.184,-2.319z"/>
  <path id="svg_105" fill-rule="nonzero" fill="#5ebcc2" d="m14.655,35.724c-1.283,-0.987 -2.912,-0.938 -3.652,0.049c-0.641,0.938 -0.197,2.368 0.987,3.306c1.184,0.888 2.763,0.937 3.503,0.099c0.839,-0.889 0.444,-2.517 -0.838,-3.454z"/>
  <path id="svg_106" fill-rule="nonzero" fill="#282828" d="m64.49,13.618c-0.641,-0.937 -1.085,-1.184 -2.418,-1.184l-2.417,0c-1.333,0 -1.777,0.296 -2.418,1.184l-14.605,20.231c-0.198,0.197 -0.296,0.493 -0.296,0.789c0,0.592 0.394,1.184 1.233,1.184l2.22,0c1.333,0 1.777,-0.296 2.418,-1.184l2.517,-3.454l19.934,0l2.516,3.454c0.642,0.938 1.086,1.184 2.418,1.184l2.517,0c0.838,0 1.233,-0.592 1.233,-1.184c0,-0.247 -0.099,-0.543 -0.247,-0.74l-14.605,-20.28zm-10.707,12.928l6.957,-9.523l6.908,9.523l-13.865,0z"/>
  <path id="svg_107" fill-rule="nonzero" fill="#282828" d="m113.684,12.385l-2.072,0c-1.036,0 -1.628,0.543 -1.628,1.579l0,10.115c0,4.737 -2.32,7.056 -7.056,7.056l-7.944,0c-4.737,0 -7.056,-2.319 -7.056,-7.056l0,-10.115c0,-1.036 -0.592,-1.579 -1.629,-1.579l-2.171,0c-1.036,0 -1.579,0.543 -1.579,1.579l0,10.115c0,7.648 4.046,11.694 11.694,11.694l9.375,0c7.648,0 11.694,-4.046 11.694,-11.694l0,-10.115c0,-0.987 -0.592,-1.579 -1.628,-1.579z"/>
  <path id="svg_108" fill-rule="nonzero" fill="#282828" d="m145.905,21.711l-17.714,0c-1.431,0 -2.122,-0.691 -2.122,-2.122c0,-1.727 0.888,-2.566 2.862,-2.566l20.872,0c1.036,0 1.579,-0.543 1.579,-1.579l0,-1.431c0,-1.036 -0.543,-1.579 -1.579,-1.579l-20.724,0c-5.921,0 -8.536,2.319 -8.536,7.5c0,4.194 2.22,6.464 6.414,6.464l17.714,0c1.48,0 2.171,0.74 2.171,2.27c0,1.776 -0.937,2.615 -2.96,2.615l-21.76,0c-1.036,0 -1.579,0.543 -1.579,1.579l0,1.431c0,1.036 0.543,1.579 1.579,1.579l21.661,0c5.97,0 8.635,-2.319 8.635,-7.5c0,-4.392 -2.221,-6.661 -6.513,-6.661z"/>
  <path id="svg_109" fill-rule="nonzero" fill="#282828" d="m186.711,12.385l-17.813,0c-7.648,0 -11.694,4.046 -11.694,11.694c0,7.648 4.046,11.694 11.694,11.694l17.813,0c1.036,0 1.578,-0.543 1.578,-1.579l0,-1.431c0,-1.036 -0.542,-1.579 -1.578,-1.579l-16.925,0c-4.737,0 -7.056,-2.319 -7.056,-7.056c0,-4.737 2.319,-7.056 7.056,-7.056l16.925,0c1.036,0 1.578,-0.542 1.578,-1.579l0,-1.431c0,-1.085 -0.592,-1.677 -1.578,-1.677z"/>
  <path id="svg_110" fill-rule="nonzero" fill="#282828" d="m223.569,12.385l-27.928,0c-1.036,0 -1.628,0.543 -1.628,1.579l0,20.23c0,1.036 0.592,1.579 1.628,1.579l27.928,0c1.036,0 1.579,-0.543 1.579,-1.579l0,-1.431c0,-1.036 -0.543,-1.579 -1.579,-1.579l-24.128,0l0,-4.835l19.737,0c1.036,0 1.579,-0.543 1.579,-1.579l0,-1.431c0,-1.036 -0.543,-1.579 -1.579,-1.579l-19.737,0l0,-4.688l24.128,0c1.036,0 1.579,-0.542 1.579,-1.579l0,-1.431c0,-1.134 -0.543,-1.677 -1.579,-1.677z"/>
  <path id="svg_111" fill-rule="nonzero" fill="#282828" d="m256.628,27.78c4.244,-0.395 6.464,-3.109 6.464,-7.747c0,-4.984 -2.615,-7.648 -7.648,-7.648l-22.993,0c-1.037,0 -1.629,0.543 -1.629,1.579l0,20.23c0,1.036 0.592,1.579 1.629,1.579l2.171,0c1.036,0 1.579,-0.543 1.579,-1.579l0,-5.921l13.618,0l6.957,6.563c0.888,0.838 1.333,0.986 2.665,0.986l3.158,0c0.641,0 1.135,-0.444 1.135,-1.085c0,-0.395 -0.148,-0.74 -0.494,-1.036c0.049,0 -6.612,-5.921 -6.612,-5.921zm-20.378,-4.145l0,-6.612l18.059,0c2.171,0 3.207,1.086 3.207,3.257c0,2.22 -1.036,3.355 -3.207,3.355l-18.059,0z"/>
  <path id="svg_112" fill-rule="nonzero" fill="#282828" d="m298.421,12.385l-29.852,0c-1.036,0 -1.579,0.543 -1.579,1.579l0,1.431c0,1.036 0.543,1.579 1.579,1.579l12.188,0l0,17.171c0,1.036 0.542,1.579 1.579,1.579l2.22,0c1.036,0 1.579,-0.543 1.579,-1.579l0,-17.122l12.237,0c1.036,0 1.579,-0.543 1.579,-1.579l0,-1.431c0.049,-1.036 -0.494,-1.628 -1.53,-1.628z"/>
 </g>
</svg>