<svg preserveAspectRatio="xMidYMid meet" data-bbox="0.5 0 220.769 60" viewBox="0.5 0 220.769 60" height="60" width="222" xmlns="http://www.w3.org/2000/svg" data-type="color" role="presentation" aria-hidden="true" aria-label="">
    <g>
        <g clip-path="url(#8f8caba9-14ae-4d13-b4aa-8d97065ec191_comp-kbgakxea_r_comp-luvp9l44)">
            <path fill="#192A4C" d="M87.876 41.753h2.877c1.263 0 2.174.807 2.174 1.81 0 .86-.61 1.408-1.346 1.667.87.228 1.677.787 1.677 1.832 0 1.232-1.138 1.894-2.494 1.894h-2.878v-.03c.052-.239.197-.808.197-1.388v-4.357c0-.58-.145-1.149-.197-1.387v-.031l-.01-.01Zm3.974 1.81c0-.786-.445-1.448-1.397-1.448h-1.376v2.97h1.304c.962 0 1.47-.631 1.47-1.521Zm.342 3.5c0-1.036-.724-1.605-1.739-1.605h-1.376v3.126h1.376c1.211 0 1.739-.56 1.739-1.532v.01Z" data-color="1"></path>
            <path fill="#192A4C" d="M98.506 47.031c-.31-.724-.766-1.252-1.387-1.387h-1.015v1.894c0 .58.145 1.15.207 1.387v.031h-1.407v-.03c.052-.239.196-.808.196-1.388v-4.357c0-.58-.144-1.149-.196-1.387v-.031h2.815c1.387 0 2.308.714 2.308 1.894 0 1.108-.776 1.739-1.853 1.884.497.145.9.455 1.18 1.004.621 1.262.777 1.8 1.336 2.38v.042h-1.212c-.258-.27-.683-1.211-.993-1.915l.02-.02Zm-2.402-4.937v3.188h1.253c.952 0 1.604-.497 1.604-1.604 0-1.108-.58-1.594-1.532-1.594h-1.314l-.01.01Zm.383 3.53h-.062.062Z" data-color="1"></path>
            <path fill="#192A4C" d="M103.701 48.956h-1.407v-.03c.052-.239.196-.808.196-1.388v-4.357c0-.58-.144-1.149-.196-1.387v-.031h1.407v.031c-.062.238-.207.807-.207 1.387v4.357c0 .58.145 1.15.207 1.387v.031Z" data-color="1"></path>
            <path fill="#192A4C" d="M105.74 41.753h2.443c1.791 0 3.364 1.428 3.364 3.56s-1.584 3.643-3.364 3.643h-2.443v-.03c.052-.239.197-.808.197-1.388v-4.357c0-.58-.145-1.149-.197-1.387v-.041Zm1.201.362v6.48h1.014c1.553 0 2.484-1.408 2.474-3.282 0-1.822-.921-3.198-2.474-3.198h-1.014Z" data-color="1"></path>
            <path fill="#192A4C" d="M112.841 45.365c0-2.143 1.583-3.706 3.467-3.706.662 0 1.542.187 2.329.549v1.346h-.073c-.341-.508-1.19-1.512-2.246-1.512-1.335 0-2.329 1.336-2.329 3.302 0 1.967 1.067 3.333 2.35 3.333.559 0 1.056-.197 1.47-.456v-1.324c0-.58-.352-1.15-.445-1.377v-.041h1.687v.041c-.104.228-.238.797-.238 1.377v1.521c-.652.29-1.543.663-2.588.663-1.811 0-3.374-1.543-3.374-3.706l-.01-.01Z" data-color="1"></path>
            <path fill="#192A4C" d="M122.301 48.956h-1.408v-.03c.052-.239.197-.808.197-1.388v-4.357c0-.58-.145-1.149-.197-1.387v-.031h1.408v.031c-.062.238-.207.807-.207 1.387v4.357c0 .58.145 1.15.207 1.387v.031Z" data-color="1"></path>
            <path fill="#192A4C" d="M124.836 42.85V47c0 .807.29 1.605.383 1.905v.051h-1.179v-.051c.093-.3.393-1.098.393-1.905v-3.57c0-.684-.238-1.325-.342-1.626v-.041h1.222l3.943 5.775v-3.83c0-.796-.3-1.603-.393-1.893v-.052h1.18v.052c-.094.3-.383 1.097-.383 1.894v5.247h-.673l-4.161-6.106h.01Z" data-color="1"></path>
            <path fill="#192A4C" d="M131.357 45.365c0-2.143 1.584-3.706 3.467-3.706.663 0 1.543.187 2.329.549v1.346h-.072c-.342-.508-1.191-1.512-2.246-1.512-1.335 0-2.329 1.336-2.329 3.302 0 1.967 1.066 3.333 2.349 3.333.559 0 1.056-.197 1.47-.456v-1.324c0-.58-.352-1.15-.445-1.377v-.041h1.687v.041c-.103.228-.238.797-.238 1.377v1.521c-.652.29-1.542.663-2.587.663-1.812 0-3.375-1.543-3.375-3.706l-.01-.01Z" data-color="1"></path>
            <path fill="#192A4C" d="M142.442 41.753h5.858v1.438h-.031c-.269-.207-.952-1.066-1.635-1.066h-.745v5.403c0 .58.145 1.149.196 1.387v.031h-1.397v-.031c.052-.238.197-.807.197-1.387v-5.403h-.756c-.693 0-1.376.86-1.635 1.066h-.042v-1.438h-.01Z" data-color="1"></path>
            <path fill="#192A4C" d="M151.343 48.956h-1.407v-.03c.051-.239.196-.808.196-1.388v-4.357c0-.58-.145-1.149-.196-1.387v-.031h1.407v.031c-.062.238-.207.807-.207 1.387v1.935h3.437v-1.935c0-.58-.145-1.149-.197-1.387v-.031h1.397v.031c-.052.238-.196.807-.196 1.387v4.357c0 .58.144 1.15.196 1.387v.031h-1.397v-.03c.052-.239.197-.808.197-1.388V45.51h-3.437v2.028c0 .58.145 1.15.207 1.387v.031Z" data-color="1"></path>
            <path fill="#192A4C" d="M158.868 45.417v3.177h1.842c.725 0 1.439-.714 1.708-.87h.052v1.232h-4.803v-.03c.052-.239.197-.808.197-1.388v-4.357c0-.58-.145-1.149-.197-1.387v-.031h4.772v1.221h-.052c-.269-.155-.994-.859-1.708-.859h-1.811v2.97h1.118c.693 0 1.366-.279 1.635-.361h.031v1.035h-.031c-.269-.083-.952-.352-1.635-.352h-1.118Z" data-color="1"></path>
            <path fill="#192A4C" d="M167.417 45.365c0-2.143 1.584-3.706 3.467-3.706.663 0 1.543.187 2.329.549v1.346h-.072c-.342-.508-1.19-1.512-2.246-1.512-1.335 0-2.329 1.336-2.329 3.302 0 1.967 1.066 3.333 2.349 3.333.559 0 1.056-.197 1.47-.456v-1.324c0-.58-.352-1.15-.445-1.377v-.041h1.687v.041c-.103.228-.238.797-.238 1.377v1.521c-.652.29-1.542.663-2.587.663-1.812 0-3.375-1.543-3.375-3.706l-.01-.01Z" data-color="1"></path>
            <path fill="#192A4C" d="m175.728 47.27 1.656-4.544c.145-.404 0-.797-.072-.942v-.031h1.221l2.174 5.734c.217.6.424 1.055.683 1.428v.031h-1.635v-.031c.051-.27.093-.849-.135-1.439l-.373-.993h-2.815l-.259.714a3.04 3.04 0 0 0-.062 1.708v.041h-1.118v-.031c.197-.31.477-.963.735-1.646Zm3.374-1.16-1.293-3.426-1.242 3.426h2.535Z" data-color="1"></path>
            <path fill="#192A4C" d="M182.901 41.753h2.795c1.386 0 2.339.973 2.339 2.184 0 1.376-1.201 2.225-2.609 2.225h-1.314v1.356c0 .58.145 1.149.207 1.387v.03h-1.418v-.03c.062-.238.207-.808.207-1.387V43.16c0-.58-.145-1.149-.207-1.387v-.03.01Zm4.068 2.184c0-.942-.559-1.801-1.584-1.801h-1.283v3.633h1.221c1.025 0 1.635-.839 1.635-1.843l.011.01Z" data-color="1"></path>
            <path fill="#192A4C" d="M88 9.564h10.413c4.667 0 7.917 2.856 7.917 6.49 0 3.177-2.401 4.884-5.019 5.754 3.136.766 6.21 2.546 6.21 6.313 0 4.358-4.078 6.552-8.746 6.552H87.13v-.134c.103-.456.91-2.96.91-5.3V15.02c0-2.34-.03-5.435-.03-5.435l-.01-.02Zm12.855 6.49c0-2.371-1.356-4.99-4.223-4.99h-3.384v10.143h3.28c2.857 0 4.327-2.618 4.327-5.164v.01Zm1.222 12.026c0-3.105-1.739-5.403-5.093-5.403h-3.726v10.495h3.726c3.488 0 5.093-1.883 5.093-5.092Z" data-color="1"></path>
            <path fill="#192A4C" d="M112.83 27.894c-1.014 2.856-2.184 5.992-2.049 6.593v.176h-2.588v-.104c.735-1.293 1.988-4.005 3.064-7.08l4.916-13.672c.663-1.811-.31-3.84-.414-4.15v-.104h6.211l7.317 19.459c.911 2.4 1.739 4.15 2.681 5.547v.104h-8.229v-.135c.104-.528.797-3.136-.103-5.547l-5.713-15.308-5.093 14.22Z" data-color="1"></path>
            <path fill="#192A4C" d="M142.08 34.663h-7.007v-.135c.103-.455.911-2.96.911-5.3v-14.22c0-2.34-.797-4.844-.911-5.3v-.134h7.007v.134c-.072.456-.869 2.96-.869 5.3v14.22c0 2.34.797 4.845.869 5.3v.135Z" data-color="1"></path>
            <path fill="#192A4C" d="M146.551 9.564h9.76c6.552 0 12.027 4.947 12.027 12.45 0 7.505-5.475 12.66-12.027 12.66h-9.76v-.135c.104-.456.911-2.96.911-5.3V15.02c0-2.34-.797-4.845-.911-5.3v-.155Zm6.138 1.397v22.284h2.132c5.268 0 7.67-5.268 7.67-11.23-.032-5.713-2.402-11.054-7.67-11.054h-2.132Z" data-color="1"></path>
            <path fill="#192A4C" d="M172.81 27.894c-1.015 2.856-2.195 5.992-2.05 6.593v.176h-2.587v-.104c.735-1.293 1.987-4.005 3.063-7.08l4.917-13.672c.662-1.811-.311-3.84-.414-4.15v-.104h6.21l7.317 19.459c.911 2.4 1.739 4.15 2.681 5.547v.104h-8.228v-.135c.103-.528.797-3.136-.104-5.547l-5.713-15.308-5.092 14.22Z" data-color="1"></path>
            <path fill="#192A4C" d="M197.412 14.087c-.031.31-.031.631-.031.941v11.748c0 3.384 1.573 7.08 1.739 7.7v.176h-5.092v-.175c.175-.632 1.738-4.327 1.738-7.701V15.028c0-2.339-1.19-4.843-1.324-5.33v-.134h6.489l7.359 18.371 6.873-18.371h6.106v.134c-.103.455-.911 2.96-.911 5.3v14.22c0 2.34.797 4.845.911 5.3v.134h-7.007v-.134c.104-.456.911-2.96.911-5.3V14.015l-7.701 20.638h-1.914l-8.125-20.565h-.021Z" data-color="1"></path>
            <path fill="#192A4C" d="m52.727 27.273-.91 2.722H48.99l2.318 1.708-.91 2.825 2.318-1.708 2.318 1.708-.91-2.825 2.421-1.708h-2.919l-.91-2.722h.01Z" data-color="1"></path>
            <path fill="#192A4C" d="m65.634 27.273-1.129 3.395h-3.529l2.898 2.142-1.128 3.53 2.898-2.143 2.898 2.142-1.128-3.529 3.022-2.142h-3.653l-1.129-3.395h-.02Z" data-color="1"></path>
            <path fill="#192A4C" d="m76.957 19.438-.983 2.94H72.92l2.505 1.852-.983 3.053 2.504-1.853 2.505 1.853-.983-3.053 2.618-1.853H77.92l-.983-2.94h.02Z" data-color="1"></path>
            <path fill="#192A4C" d="m38.288 26.155-1.273 3.82h-3.964l3.25 2.4-1.273 3.965 3.25-2.402 3.25 2.401-1.273-3.964 3.395-2.4h-4.1l-1.273-3.82h.01Z" data-color="1"></path>
            <path fill="#192A4C" d="m25.879 18.786-1.15 3.436h-3.57l2.93 2.163-1.15 3.57 2.93-2.162 2.928 2.163-1.149-3.571 3.054-2.163h-3.695l-1.15-3.436h.022Z" data-color="1"></path>
            <path fill="#192A4C" d="m4.713 36.33-1.025 3.073H.5l2.619 1.936-1.025 3.188 2.619-1.936 2.618 1.935-1.025-3.187 2.733-1.936H5.737L4.713 36.33Z" data-color="1"></path>
            <path fill="#192A4C" d="m11.005 21.839-1.262 3.798H5.799l3.24 2.391-1.263 3.944 3.24-2.391 3.24 2.39-1.263-3.943 3.374-2.39h-4.078l-1.263-3.8h-.02Z" data-color="1"></path>
            <path fill="#3D5CF5" d="M10.88 37.354c2.36 0 2.516-3.675.177-3.675-2.34 0-2.515 3.675-.176 3.675Z" data-color="2"></path>
            <path fill="#3D5CF5" d="M12.889 43.605c2.825 0 2.494-4.191-.042-4.191-2.825 0-2.494 4.191.042 4.191Z" data-color="2"></path>
            <path fill="#3D5CF5" d="M16.004 49.122c2.96 0 3.198-4.43.238-4.43s-3.198 4.43-.238 4.43Z" data-color="2"></path>
            <path fill="#3D5CF5" d="M20.506 53.541c2.857 0 2.67-4.14.032-4.14-2.857 0-2.67 4.14-.032 4.14Z" data-color="2"></path>
            <path fill="#3D5CF5" d="M25.392 57.154c2.96 0 2.701-4.327 0-4.327-2.96 0-2.702 4.327 0 4.327Z" data-color="2"></path>
            <path fill="#3D5CF5" d="M31.177 59.11c2.836 0 2.536-4.171-.02-4.171-2.836 0-2.536 4.17.02 4.17Z" data-color="2"></path>
            <path fill="#3D5CF5" d="M37.346 60c2.815 0 2.474-4.109-.052-4.109-2.815 0-2.473 4.109.052 4.109Z" data-color="2"></path>
            <path fill="#3D5CF5" d="M43.215 59.42c2.794 0 2.484-3.995.03-3.995-2.794 0-2.483 3.995-.03 3.995Z" data-color="2"></path>
            <path fill="#3D5CF5" d="M48.617 58.23c2.92 0 2.816-4.523 0-4.523-2.815 0-2.815 4.523 0 4.523Z" data-color="2"></path>
            <path fill="#3D5CF5" d="M53.886 55.177c2.887 0 2.784-4.213.072-4.213-2.887 0-2.784 4.213-.072 4.213Z" data-color="2"></path>
            <path fill="#3D5CF5" d="M58.46 51.306c2.888 0 2.816-4.15.083-4.15-2.887 0-2.815 4.15-.082 4.15Z" data-color="2"></path>
            <path fill="#3D5CF5" d="M62.3 46.7c2.816 0 2.516-4.15.01-4.15-2.814 0-2.514 4.15-.01 4.15Z" data-color="2"></path>
            <path fill="#3D5CF5" d="M65.002 41.432c2.35 0 2.277-3.52-.01-3.52-2.288 0-2.278 3.52.01 3.52Z" data-color="2"></path>
            <path fill="#40B37E" d="M66.058 21.622c-2.494-1.15-3.86 2.411-1.687 3.425 2.495 1.15 3.86-2.411 1.687-3.425Z" data-color="3"></path>
            <path fill="#40B37E" d="M62.632 19.945c2.898 0 2.846-4.306.093-4.306-2.898 0-2.846 4.306-.093 4.306Z" data-color="3"></path>
            <path fill="#40B37E" d="M59.351 14.542c2.805 0 2.432-4.14-.072-4.14-2.805 0-2.433 4.14.072 4.14Z" data-color="3"></path>
            <path fill="#40B37E" d="M54.818 10.298c2.846 0 2.587-4.16 0-4.16-2.846 0-2.588 4.16 0 4.16Z" data-color="3"></path>
            <path fill="#40B37E" d="M49.694 7.37c2.888 0 3.085-4.4.207-4.513-3.042-.114-3.218 4.512-.207 4.512Z" data-color="3"></path>
            <path fill="#40B37E" d="M44.302 5.01c2.867 0 2.702-4.182.041-4.182-2.867 0-2.7 4.181-.04 4.181Z" data-color="3"></path>
            <path fill="#40B37E" d="M38.237 4.347c2.991 0 2.753-4.347.01-4.347-2.991 0-2.753 4.347-.01 4.347Z" data-color="3"></path>
            <path fill="#40B37E" d="M32.513 4.792c2.867 0 2.577-4.223-.03-4.171-2.94.052-2.392 4.171.03 4.171Z" data-color="3"></path>
            <path fill="#40B37E" d="M26.872 6.831c2.95 0 2.878-4.523.083-4.523-2.95 0-2.877 4.523-.083 4.523Z" data-color="3"></path>
            <path fill="#40B37E" d="M21.387 9.75c3.095.02 2.65-4.44.072-4.44-2.867 0-2.805 4.42-.072 4.44Z" data-color="3"></path>
            <path fill="#40B37E" d="M16.522 14.2c2.878 0 2.733-4.336.052-4.336-2.877 0-2.733 4.336-.052 4.336Z" data-color="3"></path>
            <path fill="#40B37E" d="M12.775 20.017c2.795 0 2.464-4.057 0-4.057-2.794 0-2.463 4.057 0 4.057Z" data-color="3"></path>
        </g>
        <defs fill="none">
            <clipPath id="8f8caba9-14ae-4d13-b4aa-8d97065ec191_comp-kbgakxea_r_comp-luvp9l44">
                <path transform="translate(.5)" fill="#ffffff" d="M220.759 0v60H0V0h220.759z"></path>
            </clipPath>
        </defs>
    </g>
</svg>