<svg width="1600" height="266.3" xmlns="http://www.w3.org/2000/svg" data-name="Layer 1">

 <g>
  <title>Layer 1</title>
  <path id="svg_1" fill="#69d03c" d="m8,0a8,8 0 0 0 -8,8l0,117.16a8,8 0 0 0 8,8l277,0a8,8 0 0 0 8,-8l0,-10.65a8,8 0 0 0 -8,-8l-250.38,0a8,8 0 0 1 -8,-8l0,-63.89a8,8 0 0 1 8,-8l250.19,0a8,8 0 0 0 8,-8l0,-10.62a8,8 0 0 0 -8,-8l-276.81,0z" class="cls-1"/>
  <path id="svg_2" fill="#69d03c" d="m61.25,53.26a8,8 0 0 0 -8,8l0,10.64a8,8 0 0 0 8,8l250.4,0a8,8 0 0 1 8,8l0,63.91a8,8 0 0 1 -8,8l-250.42,0a8,8 0 0 0 -8,8l0,90.54a8,8 0 0 0 8,8l10.65,0a8,8 0 0 0 8,-8l0,-63.95a8,8 0 0 1 8,-8l250.41,0a8,8 0 0 0 8,-8l0,-117.15a8,8 0 0 0 -8,-8l-277.04,0.01z" class="cls-1"/>
  <path id="svg_3" fill="#000000" d="m500.25,95.38l0,15.67l-34.66,0c-17.27,0 -24.84,8.64 -24.84,29.22s7.44,29.09 24.84,29.09l34.66,0l0,15.64l-34.66,0c-26.17,0 -40.51,-14.74 -40.51,-44.76s14.47,-44.89 40.51,-44.89l34.66,0.03z" class="cls-1"/>
  <path id="svg_4" fill="#000000" d="m591.51,114.91l-42.24,98.27l-15.14,0l13.15,-30.67c-8,0 -10.76,-2.53 -13.15,-8.64l-23.5,-59l14.87,0l21.12,52.19c0.93,2.52 1.59,2.92 4.25,2.92l1.86,0l23.77,-55.11l15.01,0.04z" class="cls-1"/>
  <path id="svg_5" fill="#000000" d="m618.22,84.49l0,30.42l31.08,0c18.59,0 30.28,11.42 30.28,35.06s-11.69,35.03 -30.28,35.03l-19.39,0c-16.87,0 -25.77,-9.83 -25.77,-30l0,-70.51l14.08,0zm0,44l0,25.9c0,12 4.38,17 15.8,17l13.82,0c12.22,0 17.53,-6.24 17.53,-21.38s-5.31,-21.52 -17.53,-21.52l-29.62,0z" class="cls-1"/>
  <path id="svg_6" fill="#000000" d="m742.15,114.9c16.6,0 23.64,8 23.64,21.52c0,12.88 -6.51,20.19 -23.77,20.19l-33.34,0l0,5c0,5.58 3.05,9.7 10.76,9.7l42.9,0l0,13.69l-42.9,0c-17.53,0 -24.44,-9.8 -24.44,-23.08l0,-23.92c0,-13.28 6.91,-23.11 24.44,-23.11l22.71,0.01zm-33.47,30.68l32.94,0c7.57,0 10.36,-3.18 10.36,-8.36s-3.06,-8.77 -10,-8.77l-22.54,0c-7.71,0 -10.76,4.25 -10.76,9.7l0,7.43z" class="cls-1"/>
  <path id="svg_7" fill="#000000" d="m830.75,114.91l0,13.54l-24.7,0c-6.24,0 -9,2.92 -9,9l0,47.55l-14.11,0l0,-49.64c0,-14.08 5.18,-20.45 19,-20.45l28.81,0z" class="cls-1"/>
  <path id="svg_8" fill="#000000" d="m914.56,95.38l0,15.67l-45.95,0c-8.1,0 -11.68,4.39 -11.68,10.63c0,5.44 2.79,10.62 13.28,10.62l21,0c24.44,0 30.15,13.55 30.15,26.43c0,15.14 -8.1,26.3 -28.56,26.3l-49.95,0l0,-15.67l50.46,0c8.5,0 12.36,-4.65 12.36,-11.16c0,-5.84 -3.06,-11.16 -14.08,-11.16l-20.85,0c-23.91,0 -29.49,-13.41 -29.49,-25.89c0,-14.88 8,-25.77 27.89,-25.77l45.42,0z" class="cls-1"/>
  <path id="svg_9" fill="#000000" d="m983.64,114.9c16.61,0 23.64,8 23.64,21.52c0,12.88 -6.5,20.19 -23.77,20.19l-33.33,0l0,5c0,5.58 3.05,9.7 10.76,9.7l42.89,0l0,13.69l-42.89,0c-17.54,0 -24.44,-9.83 -24.44,-23.11l0,-23.89c0,-13.28 6.9,-23.11 24.44,-23.11l22.7,0.01zm-33.46,30.68l32.93,0c7.57,0 10.36,-3.18 10.36,-8.36s-3.05,-8.77 -10,-8.77l-22.53,0c-7.71,0 -10.76,4.25 -10.76,9.7l0,7.43z" class="cls-1"/>
  <path id="svg_10" fill="#000000" d="m1087.79,114.91l0,13.54l-34.79,0c-12.22,0 -17.53,6.38 -17.53,21.52s5.31,21.38 17.53,21.38l34.8,0l0,13.65l-36.13,0c-18.73,0 -30.41,-11.42 -30.41,-35.06s11.68,-35.06 30.41,-35.06l36.12,0.03z" class="cls-1"/>
  <path id="svg_11" fill="#000000" d="m1186.49,95.38c20.18,0 28.82,12.49 28.82,26.83c0,13.55 -7.84,28.15 -28.82,28.15l-27.89,0a2,2 0 0 0 -2.26,2.26l0,32.38l-15.67,0l0,-35.43c0,-10.1 4.25,-14.21 14.07,-14.21l32.26,0c8.9,0 12.48,-6.11 12.48,-12.35c0,-6.51 -3.85,-12 -12.35,-12l-46.62,0l0,-15.63l45.98,0z" class="cls-1"/>
  <path id="svg_12" fill="#000000" d="m1274.29,114.9c16.6,0 23.64,8 23.64,21.52c0,12.88 -6.51,20.19 -23.77,20.19l-33.34,0l0,5c0,5.58 3.06,9.7 10.76,9.7l42.9,0l0,13.69l-42.9,0c-17.53,0 -24.44,-9.83 -24.44,-23.11l0,-23.89c0,-13.28 6.91,-23.11 24.44,-23.11l22.71,0.01zm-33.47,30.68l32.94,0c7.57,0 10.36,-3.18 10.36,-8.36s-3.06,-8.77 -10,-8.77l-22.58,0c-7.7,0 -10.76,4.25 -10.76,9.7l0.04,7.43z" class="cls-1"/>
  <path id="svg_13" fill="#000000" d="m1357.05,114.91c18.59,0 30.41,11.42 30.41,35.06s-11.82,35.03 -30.41,35.03l-14.74,0c-18.73,0 -30.42,-11.42 -30.42,-35.06s11.69,-35.06 30.42,-35.06l14.74,0.03zm-13.41,13.54c-12.22,0 -17.54,6.38 -17.54,21.52s5.32,21.38 17.54,21.38l12.08,0c12.09,0 17.53,-6.24 17.53,-21.38s-5.44,-21.52 -17.53,-21.52l-12.08,0z" class="cls-1"/>
  <path id="svg_14" fill="#000000" d="m1449.24,114.91c18.59,0 30.28,11.42 30.28,35.06s-11.69,35.03 -30.28,35.03l-31.08,0l0,28.15l-14.08,0l0,-68.23c0,-20.19 8.9,-30 25.77,-30l19.39,-0.01zm-31.08,56.44l29.61,0c12.22,0 17.53,-6.24 17.53,-21.38s-5.31,-21.52 -17.53,-21.52l-13.77,0c-11.42,0 -15.8,5.05 -15.8,17.13l-0.04,25.77z" class="cls-1"/>
  <rect id="svg_15" fill="#000000" height="100.54" width="14.07" y="84.49" x="1496.4" class="cls-1"/>
  <path id="svg_16" fill="#000000" d="m1576.36,114.9c16.6,0 23.64,8 23.64,21.52c0,12.88 -6.51,20.19 -23.77,20.19l-33.34,0l0,5c0,5.58 3.06,9.7 10.76,9.7l42.9,0l0,13.69l-42.9,0c-17.53,0 -24.44,-9.83 -24.44,-23.11l0,-23.89c0,-13.28 6.91,-23.11 24.44,-23.11l22.71,0.01zm-33.47,30.68l32.94,0c7.57,0 10.36,-3.18 10.36,-8.36s-3.06,-8.77 -10,-8.77l-22.58,0c-7.7,0 -10.76,4.25 -10.76,9.7l0.04,7.43z" class="cls-1"/>
 </g>
</svg>